REM DIRINDEX 1\3,1\4,1\5,1\6,1\2\7,1\2\8,1\2\9,1\2\10,1\2\11
REM DIRNAME cjc021,folder01,folder02,folder03,folder04,folder05,folder06,folder07,folder08,folder09,folder10
TITLE ""
FILE "DISC5Track18.mp3" MP3
  TRACK 01 AUDIO
    TITLE "0:"
    INDEX 01 00:00:00
  TRACK 02 AUDIO
    TITLE "3:cjc021_5289"
    INDEX 01 00:00:21
  TRACK 03 AUDIO
    TITLE "0:"
    INDEX 01 00:01:30
  TRACK 04 AUDIO
    TITLE "4:cjc021_5290"
    INDEX 01 00:03:06
  TRACK 05 AUDIO
    TITLE "0:"
    INDEX 01 00:04:11
  TRACK 06 AUDIO
    TITLE "5:cjc021_5291"
    INDEX 01 00:04:48
  TRACK 07 AUDIO
    TITLE "0:"
    INDEX 01 00:06:67
  TRACK 08 AUDIO
    TITLE "3:cjc021_5292"
    INDEX 01 00:08:30
  TRACK 09 AUDIO
    TITLE "0:"
    INDEX 01 00:09:45
  TRACK 10 AUDIO
    TITLE "4:cjc021_5293"
    INDEX 01 00:11:21
  TRACK 11 AUDIO
    TITLE "0:"
    INDEX 01 00:12:32
  TRACK 12 AUDIO
    TITLE "5:cjc021_5294"
    INDEX 01 00:12:73
  TRACK 13 AUDIO
    TITLE "0:"
    INDEX 01 00:16:44
  TRACK 14 AUDIO
    TITLE "3:cjc021_5295"
    INDEX 01 00:18:07
  TRACK 15 AUDIO
    TITLE "0:"
    INDEX 01 00:19:11
  TRACK 16 AUDIO
    TITLE "4:cjc021_5296"
    INDEX 01 00:20:61
  TRACK 17 AUDIO
    TITLE "0:"
    INDEX 01 00:21:64
  TRACK 18 AUDIO
    TITLE "5:cjc021_5297"
    INDEX 01 00:22:27
  TRACK 19 AUDIO
    TITLE "0:"
    INDEX 01 00:25:23
  TRACK 20 AUDIO
    TITLE "3:cjc021_5298"
    INDEX 01 00:26:62
  TRACK 21 AUDIO
    TITLE "0:"
    INDEX 01 00:27:55
  TRACK 22 AUDIO
    TITLE "4:cjc021_5299"
    INDEX 01 00:29:31
  TRACK 23 AUDIO
    TITLE "0:"
    INDEX 01 00:30:24
  TRACK 24 AUDIO
    TITLE "5:cjc021_5300"
    INDEX 01 00:30:61
  TRACK 25 AUDIO
    TITLE "0:"
    INDEX 01 00:33:38
  TRACK 26 AUDIO
    TITLE "3:cjc021_5301"
    INDEX 01 00:34:73
  TRACK 27 AUDIO
    TITLE "0:"
    INDEX 01 00:35:72
  TRACK 28 AUDIO
    TITLE "4:cjc021_5302"
    INDEX 01 00:37:48
  TRACK 29 AUDIO
    TITLE "0:"
    INDEX 01 00:38:47
  TRACK 30 AUDIO
    TITLE "5:cjc021_5303"
    INDEX 01 00:39:05
  TRACK 31 AUDIO
    TITLE "0:"
    INDEX 01 00:41:38
  TRACK 32 AUDIO
    TITLE "3:cjc021_5304"
    INDEX 01 00:43:01
  TRACK 33 AUDIO
    TITLE "0:"
    INDEX 01 00:44:32
  TRACK 34 AUDIO
    TITLE "4:cjc021_5305"
    INDEX 01 00:46:06
  TRACK 35 AUDIO
    TITLE "0:"
    INDEX 01 00:47:36
  TRACK 36 AUDIO
    TITLE "5:cjc021_5306"
    INDEX 01 00:47:74
  TRACK 37 AUDIO
    TITLE "0:"
    INDEX 01 00:51:28
  TRACK 38 AUDIO
    TITLE "3:cjc021_5307"
    INDEX 01 00:52:63
  TRACK 39 AUDIO
    TITLE "0:"
    INDEX 01 00:53:64
  TRACK 40 AUDIO
    TITLE "4:cjc021_5308"
    INDEX 01 00:55:40
  TRACK 41 AUDIO
    TITLE "0:"
    INDEX 01 00:56:41
  TRACK 42 AUDIO
    TITLE "5:cjc021_5309"
    INDEX 01 00:57:01
  TRACK 43 AUDIO
    TITLE "0:"
    INDEX 01 00:59:38
  TRACK 44 AUDIO
    TITLE "3:cjc021_5310"
    INDEX 01 01:00:72
  TRACK 45 AUDIO
    TITLE "0:"
    INDEX 01 01:01:70
  TRACK 46 AUDIO
    TITLE "4:cjc021_5311"
    INDEX 01 01:03:47
  TRACK 47 AUDIO
    TITLE "0:"
    INDEX 01 01:04:43
  TRACK 48 AUDIO
    TITLE "5:cjc021_5312"
    INDEX 01 01:05:05
  TRACK 49 AUDIO
    TITLE "0:"
    INDEX 01 01:07:31
  TRACK 50 AUDIO
    TITLE "3:cjc021_5313"
    INDEX 01 01:08:68
  TRACK 51 AUDIO
    TITLE "0:"
    INDEX 01 01:10:08
  TRACK 52 AUDIO
    TITLE "4:cjc021_5314"
    INDEX 01 01:11:60
  TRACK 53 AUDIO
    TITLE "0:"
    INDEX 01 01:13:00
  TRACK 54 AUDIO
    TITLE "5:cjc021_5315"
    INDEX 01 01:13:36
  TRACK 55 AUDIO
    TITLE "0:"
    INDEX 01 01:16:14
  TRACK 56 AUDIO
    TITLE "3:cjc021_5316"
    INDEX 01 01:17:51
  TRACK 57 AUDIO
    TITLE "0:"
    INDEX 01 01:18:70
  TRACK 58 AUDIO
    TITLE "4:cjc021_5317"
    INDEX 01 01:20:46
  TRACK 59 AUDIO
    TITLE "0:"
    INDEX 01 01:21:65
  TRACK 60 AUDIO
    TITLE "5:cjc021_5318"
    INDEX 01 01:22:25
  TRACK 61 AUDIO
    TITLE "0:"
    INDEX 01 01:24:53
